<?xml version="1.0" encoding="UTF-8" standalone="no"?>
<!DOCTYPE svg PUBLIC "-//W3C//DTD SVG 1.1//EN" "http://www.w3.org/Graphics/SVG/1.1/DTD/svg11.dtd">
<svg width="100%" height="100%" viewBox="0 0 2000 2000" version="1.1" xmlns="http://www.w3.org/2000/svg" xmlns:xlink="http://www.w3.org/1999/xlink" xml:space="preserve" xmlns:serif="http://www.serif.com/" style="fill-rule:evenodd;clip-rule:evenodd;stroke-linejoin:round;stroke-miterlimit:2;">
    <g id="Icon" transform="matrix(6.785919,0,0,4.581011,-5325.677213,-4816.171219)">
        <g transform="matrix(-0.931608,0,0,0.890632,1820.622391,94.849116)">
            <path d="M892.153,1421.238L892.153,1326.889L944.881,1374.069L944.881,1342.622L874.579,1279.731L874.577,1436.961L962.456,1515.576L962.456,1484.13L892.153,1421.238Z" style="fill:rgb(255,236,63);"/>
        </g>
        <g transform="matrix(0.931608,0,0,0.890632,158.312011,94.881807)">
            <path d="M892.192,1326.863L892.192,1421.201L874.616,1405.478L874.616,1342.586L892.192,1326.863Z" style="fill:rgb(248,223,0);"/>
        </g>
        <g transform="matrix(-0.158578,0,0,0.173732,1115.084584,1126.870194)">
            <path d="M1205.052,1506.838L895.291,1265.026L792.037,1345.63L1205.052,1668.046L1514.814,1426.234L1411.56,1345.63L1205.052,1506.838Z" style="fill:rgb(255,236,63);"/>
        </g>
        <g id="rod" transform="matrix(1,0,0,1,0.60488,-56.902228)">
            <path d="M874.264,1431.554L923.385,1473.565L923.385,1501.572L857.89,1445.558L857.89,1389.544L874.264,1403.547L874.264,1431.554Z" style="fill:rgb(248,223,0);"/>
        </g>
        <g transform="matrix(-0.931608,0,0,0.890632,1705.891291,108.950653)">
            <path d="M892.03,1389.682L892.03,1421.128L856.878,1389.682L856.878,1358.235L892.03,1389.682Z" style="fill:rgb(255,236,63);"/>
        </g>
        <g transform="matrix(-0.158578,0,0,0.173732,1016.65751,1099.392033)">
            <path d="M997.382,1342.587L894.128,1423.191L687.62,1261.983L790.874,1181.379L997.382,1342.587Z" style="fill:rgb(255,236,63);"/>
        </g>
        <g transform="matrix(-0.158578,0,0,0.173732,1096.399671,1031.193551)">
            <path d="M983.97,1332.117L674.192,1090.325L570.972,1170.909L880.716,1412.721L983.97,1493.325L1396.987,1170.909L1293.732,1090.305L983.97,1332.117Z" style="fill:rgb(255,236,63);"/>
        </g>
        <g transform="matrix(0.931608,0,0,0.890632,109.305355,52.773338)">
            <path d="M821.765,1326.973L892.069,1389.865L892.069,1421.311L804.19,1342.696L804.19,1248.357L821.765,1264.08L821.765,1326.973Z" style="fill:rgb(248,223,0);"/>
        </g>
        <g transform="matrix(-0.931608,0,0,0.890632,1705.891291,-31.084007)">
            <path d="M874.454,1373.958L874.454,1405.405L892.03,1421.128L892.03,1358.235L821.727,1295.343L821.727,1326.789L874.454,1373.958Z" style="fill:rgb(255,236,63);"/>
        </g>
        <g transform="matrix(-0.158578,0,0,0.173732,1031.953744,916.915774)">
            <path d="M164.556,1345.068L371.063,1506.277L474.317,1425.673L371.064,1345.068L577.571,1183.861L990.587,1506.277L1093.841,1425.673L577.571,1022.652L164.556,1345.068Z" style="fill:rgb(255,236,63);"/>
        </g>
        <g transform="matrix(-0.931608,0,0,0.890632,1820.50772,-73.094405)">
            <path d="M909.606,1405.405L909.606,1436.851L874.454,1405.405L874.454,1373.958L909.606,1405.405Z" style="fill:rgb(255,236,63);"/>
        </g>
        <g transform="matrix(0.931608,0,0,0.890632,141.861789,-87.097871)">
            <path d="M892.274,1389.682L874.698,1405.405L857.122,1389.682L857.122,1358.235L892.274,1389.682Z" style="fill:rgb(248,223,0);"/>
        </g>
        <g transform="matrix(0.931608,0,0,0.890632,141.978035,-59.122282)">
            <path d="M892.149,1389.717C892.149,1400.199 892.215,1411.129 892.149,1421.163L874.573,1405.44L874.573,1373.994L892.149,1389.717Z" style="fill:rgb(248,223,0);"/>
        </g>
    </g>
</svg>
