<?xml version="1.0" encoding="UTF-8" standalone="no"?>
<!DOCTYPE svg PUBLIC "-//W3C//DTD SVG 1.1//EN" "http://www.w3.org/Graphics/SVG/1.1/DTD/svg11.dtd">
<svg width="100%" height="100%" viewBox="0 0 7500 2000" version="1.1" xmlns="http://www.w3.org/2000/svg" xmlns:xlink="http://www.w3.org/1999/xlink" xml:space="preserve" xmlns:serif="http://www.serif.com/" style="fill-rule:evenodd;clip-rule:evenodd;stroke-linejoin:round;stroke-miterlimit:2;">
    <g transform="matrix(2.352941,0,0,2.352941,289.540153,-514.621888)">
        <g transform="matrix(425,0,0,425,713.488209,796.714303)">
            <path d="M0.315,0.015C0.265,0.015 0.221,0.007 0.181,-0.009C0.142,-0.026 0.109,-0.049 0.083,-0.079C0.057,-0.109 0.04,-0.145 0.032,-0.186L0.09,-0.196C0.103,-0.148 0.129,-0.11 0.17,-0.083C0.21,-0.055 0.259,-0.041 0.316,-0.041C0.355,-0.041 0.389,-0.047 0.418,-0.06C0.448,-0.072 0.471,-0.089 0.488,-0.112C0.505,-0.134 0.513,-0.16 0.513,-0.191C0.513,-0.212 0.509,-0.23 0.501,-0.245C0.493,-0.26 0.483,-0.272 0.471,-0.281C0.459,-0.291 0.445,-0.299 0.431,-0.304C0.417,-0.31 0.404,-0.315 0.392,-0.319L0.211,-0.373C0.187,-0.38 0.166,-0.388 0.147,-0.399C0.128,-0.409 0.112,-0.421 0.099,-0.435C0.086,-0.449 0.077,-0.465 0.07,-0.483C0.063,-0.5 0.06,-0.52 0.06,-0.541C0.06,-0.58 0.07,-0.614 0.091,-0.643C0.111,-0.672 0.14,-0.695 0.176,-0.711C0.212,-0.727 0.254,-0.735 0.3,-0.735C0.348,-0.735 0.39,-0.726 0.428,-0.709C0.466,-0.692 0.496,-0.667 0.521,-0.636C0.545,-0.605 0.561,-0.567 0.568,-0.525L0.508,-0.514C0.503,-0.547 0.491,-0.576 0.472,-0.601C0.453,-0.625 0.429,-0.644 0.399,-0.658C0.369,-0.672 0.336,-0.679 0.3,-0.679C0.265,-0.679 0.234,-0.673 0.207,-0.661C0.18,-0.649 0.159,-0.633 0.144,-0.613C0.129,-0.592 0.121,-0.569 0.121,-0.543C0.121,-0.517 0.128,-0.496 0.143,-0.48C0.157,-0.464 0.175,-0.451 0.196,-0.443C0.217,-0.434 0.238,-0.426 0.257,-0.421L0.402,-0.378C0.416,-0.374 0.432,-0.368 0.451,-0.361C0.47,-0.353 0.489,-0.343 0.507,-0.329C0.526,-0.316 0.541,-0.298 0.553,-0.276C0.565,-0.254 0.571,-0.226 0.571,-0.192C0.571,-0.16 0.565,-0.131 0.552,-0.105C0.54,-0.08 0.522,-0.058 0.499,-0.04C0.477,-0.022 0.449,-0.009 0.418,0.001C0.387,0.01 0.352,0.015 0.315,0.015Z" style="fill:rgb(247,223,5);fill-rule:nonzero;"/>
        </g>
        <g transform="matrix(425,0,0,425,956.872251,796.714303)">
            <path d="M0.29,0.015C0.236,0.015 0.191,0.003 0.154,-0.021C0.117,-0.045 0.089,-0.079 0.07,-0.122C0.051,-0.165 0.041,-0.214 0.04,-0.27C0.041,-0.327 0.051,-0.377 0.07,-0.42C0.09,-0.463 0.118,-0.496 0.155,-0.519C0.192,-0.543 0.237,-0.555 0.291,-0.555C0.343,-0.555 0.389,-0.542 0.429,-0.517C0.469,-0.492 0.497,-0.457 0.512,-0.413L0.456,-0.393C0.442,-0.427 0.421,-0.453 0.392,-0.471C0.362,-0.49 0.329,-0.499 0.29,-0.499C0.248,-0.499 0.213,-0.489 0.185,-0.47C0.157,-0.45 0.137,-0.423 0.123,-0.389C0.109,-0.355 0.102,-0.315 0.102,-0.27C0.102,-0.201 0.119,-0.146 0.15,-0.104C0.182,-0.062 0.228,-0.041 0.29,-0.041C0.329,-0.041 0.362,-0.05 0.39,-0.068C0.418,-0.085 0.44,-0.111 0.455,-0.145L0.512,-0.125C0.491,-0.079 0.462,-0.044 0.424,-0.021C0.386,0.003 0.342,0.015 0.29,0.015Z" style="fill:rgb(247,223,5);fill-rule:nonzero;"/>
        </g>
        <g transform="matrix(425,0,0,425,1175.676798,796.714303)">
            <path d="M0.226,0.015C0.184,0.015 0.15,0.008 0.122,-0.007C0.095,-0.022 0.074,-0.041 0.061,-0.065C0.047,-0.089 0.04,-0.116 0.04,-0.144C0.04,-0.175 0.046,-0.2 0.059,-0.221C0.072,-0.242 0.089,-0.259 0.111,-0.271C0.132,-0.284 0.156,-0.293 0.182,-0.299C0.212,-0.306 0.244,-0.312 0.278,-0.317C0.313,-0.322 0.345,-0.326 0.376,-0.33C0.408,-0.333 0.433,-0.336 0.452,-0.339L0.432,-0.326C0.433,-0.385 0.422,-0.428 0.399,-0.457C0.376,-0.485 0.335,-0.499 0.277,-0.499C0.236,-0.499 0.202,-0.49 0.175,-0.472C0.149,-0.453 0.13,-0.425 0.12,-0.386L0.061,-0.402C0.073,-0.451 0.098,-0.489 0.135,-0.515C0.172,-0.542 0.22,-0.555 0.278,-0.555C0.328,-0.555 0.37,-0.545 0.404,-0.526C0.438,-0.507 0.461,-0.479 0.474,-0.445C0.48,-0.43 0.484,-0.413 0.486,-0.394C0.488,-0.375 0.489,-0.356 0.489,-0.337L0.489,-0L0.436,-0L0.436,-0.142L0.456,-0.137C0.44,-0.088 0.411,-0.051 0.371,-0.024C0.33,0.002 0.282,0.015 0.226,0.015ZM0.229,-0.038C0.266,-0.038 0.298,-0.044 0.326,-0.058C0.353,-0.071 0.376,-0.089 0.393,-0.113C0.41,-0.137 0.421,-0.165 0.426,-0.197C0.429,-0.215 0.431,-0.235 0.431,-0.256C0.431,-0.277 0.431,-0.292 0.431,-0.302L0.456,-0.287C0.435,-0.284 0.409,-0.281 0.379,-0.278C0.349,-0.275 0.318,-0.271 0.287,-0.267C0.255,-0.263 0.227,-0.257 0.202,-0.251C0.186,-0.246 0.17,-0.24 0.154,-0.232C0.138,-0.224 0.125,-0.212 0.115,-0.198C0.104,-0.184 0.099,-0.166 0.099,-0.144C0.099,-0.127 0.103,-0.111 0.111,-0.094C0.119,-0.078 0.133,-0.065 0.152,-0.054C0.171,-0.043 0.197,-0.038 0.229,-0.038Z" style="fill:rgb(247,223,5);fill-rule:nonzero;"/>
        </g>
        <g transform="matrix(425,0,0,425,1383.431319,796.714303)">
            <path d="M0.126,-0L0.126,-0.591C0.126,-0.605 0.127,-0.618 0.128,-0.631C0.13,-0.643 0.133,-0.655 0.138,-0.666C0.143,-0.678 0.149,-0.689 0.159,-0.699C0.168,-0.709 0.178,-0.716 0.19,-0.722C0.201,-0.727 0.214,-0.73 0.227,-0.732C0.24,-0.734 0.253,-0.735 0.268,-0.735L0.337,-0.735L0.337,-0.685L0.273,-0.685C0.243,-0.685 0.221,-0.678 0.206,-0.663C0.191,-0.649 0.183,-0.626 0.183,-0.593L0.183,-0L0.126,-0ZM0.03,-0.487L0.03,-0.54L0.337,-0.54L0.337,-0.487L0.03,-0.487ZM0.424,-0L0.424,-0.591C0.424,-0.605 0.425,-0.618 0.427,-0.631C0.428,-0.643 0.431,-0.655 0.436,-0.666C0.441,-0.678 0.448,-0.689 0.457,-0.699C0.466,-0.709 0.477,-0.716 0.488,-0.722C0.5,-0.727 0.512,-0.73 0.525,-0.732C0.538,-0.734 0.552,-0.735 0.566,-0.735L0.636,-0.735L0.636,-0.685L0.571,-0.685C0.541,-0.685 0.519,-0.678 0.504,-0.663C0.489,-0.649 0.482,-0.626 0.482,-0.593L0.482,-0L0.424,-0ZM0.329,-0.487L0.329,-0.54L0.636,-0.54L0.636,-0.487L0.329,-0.487Z" style="fill:rgb(247,223,5);fill-rule:nonzero;"/>
        </g>
        <g transform="matrix(425,0,0,425,1374.931319,796.714303)">
        </g>
        <g transform="matrix(425,0,0,425,1510.912318,796.714303)">
        </g>
        <g transform="matrix(425,0,0,425,1619.448885,796.714303)">
            <path d="M0.291,0.015C0.238,0.015 0.192,0.003 0.155,-0.022C0.118,-0.046 0.089,-0.079 0.069,-0.122C0.05,-0.165 0.04,-0.215 0.04,-0.271C0.04,-0.327 0.05,-0.377 0.07,-0.42C0.09,-0.462 0.119,-0.496 0.156,-0.519C0.194,-0.543 0.239,-0.555 0.291,-0.555C0.345,-0.555 0.391,-0.543 0.428,-0.519C0.466,-0.495 0.494,-0.461 0.514,-0.418C0.533,-0.376 0.543,-0.327 0.543,-0.271C0.543,-0.214 0.533,-0.164 0.513,-0.121C0.494,-0.079 0.465,-0.045 0.427,-0.021C0.39,0.003 0.345,0.015 0.291,0.015ZM0.291,-0.041C0.355,-0.041 0.403,-0.062 0.434,-0.105C0.466,-0.148 0.481,-0.203 0.481,-0.271C0.481,-0.34 0.466,-0.396 0.434,-0.437C0.402,-0.478 0.355,-0.499 0.291,-0.499C0.248,-0.499 0.213,-0.489 0.185,-0.47C0.157,-0.45 0.136,-0.423 0.122,-0.389C0.108,-0.355 0.101,-0.316 0.102,-0.271C0.101,-0.202 0.118,-0.146 0.15,-0.104C0.182,-0.062 0.229,-0.041 0.291,-0.041Z" style="fill:rgb(247,223,5);fill-rule:nonzero;"/>
        </g>
        <g transform="matrix(425,0,0,425,1850.15351,796.714303)">
            <rect x="0.08" y="-0.735" width="0.058" height="0.735" style="fill:rgb(247,223,5);fill-rule:nonzero;"/>
        </g>
        <g transform="matrix(425,0,0,425,1929.912656,796.714303)">
            <path d="M0.277,0.015C0.227,0.015 0.184,0.002 0.148,-0.023C0.113,-0.048 0.086,-0.082 0.068,-0.125C0.049,-0.168 0.04,-0.217 0.04,-0.271C0.04,-0.324 0.049,-0.372 0.067,-0.415C0.086,-0.458 0.112,-0.492 0.147,-0.517C0.181,-0.542 0.223,-0.555 0.272,-0.555C0.322,-0.555 0.365,-0.543 0.399,-0.518C0.434,-0.494 0.46,-0.46 0.478,-0.417C0.496,-0.374 0.505,-0.325 0.505,-0.271C0.505,-0.217 0.496,-0.169 0.478,-0.126C0.46,-0.082 0.435,-0.048 0.401,-0.023C0.367,0.002 0.326,0.015 0.277,0.015ZM0.281,-0.04C0.321,-0.04 0.355,-0.05 0.382,-0.07C0.408,-0.09 0.428,-0.118 0.442,-0.153C0.455,-0.187 0.462,-0.227 0.462,-0.271C0.462,-0.315 0.455,-0.355 0.442,-0.39C0.428,-0.424 0.408,-0.451 0.381,-0.471C0.355,-0.49 0.322,-0.5 0.282,-0.5C0.241,-0.5 0.207,-0.49 0.18,-0.47C0.154,-0.45 0.134,-0.422 0.121,-0.388C0.108,-0.353 0.101,-0.314 0.102,-0.271C0.101,-0.227 0.108,-0.188 0.122,-0.153C0.135,-0.118 0.155,-0.091 0.182,-0.071C0.208,-0.05 0.241,-0.04 0.281,-0.04ZM0.462,-0L0.462,-0.416L0.456,-0.416L0.456,-0.72L0.514,-0.72L0.514,-0L0.462,-0Z" style="fill:rgb(247,223,5);fill-rule:nonzero;"/>
        </g>
        <g transform="matrix(425,0,0,425,2178.183913,796.714303)">
            <path d="M0.07,-0L0.07,-0.72L0.124,-0.72L0.418,-0.083L0.711,-0.72L0.766,-0.72L0.766,-0.001L0.71,-0.001L0.71,-0.588L0.442,-0L0.394,-0L0.126,-0.588L0.126,-0L0.07,-0Z" style="fill:rgb(247,223,5);fill-rule:nonzero;"/>
        </g>
        <g transform="matrix(425,0,0,425,2524.913331,796.714303)">
            <path d="M0.357,0.015C0.286,0.015 0.225,-0.001 0.177,-0.033C0.128,-0.065 0.092,-0.109 0.067,-0.165C0.042,-0.221 0.03,-0.286 0.03,-0.36C0.03,-0.434 0.042,-0.499 0.067,-0.555C0.092,-0.611 0.128,-0.655 0.177,-0.687C0.225,-0.719 0.286,-0.735 0.357,-0.735C0.441,-0.735 0.509,-0.713 0.561,-0.67C0.613,-0.627 0.649,-0.569 0.668,-0.496L0.608,-0.481C0.593,-0.542 0.564,-0.59 0.522,-0.625C0.48,-0.661 0.425,-0.679 0.357,-0.679C0.298,-0.679 0.249,-0.665 0.21,-0.638C0.171,-0.611 0.142,-0.574 0.122,-0.526C0.102,-0.478 0.092,-0.423 0.091,-0.36C0.091,-0.297 0.1,-0.242 0.12,-0.195C0.14,-0.147 0.17,-0.109 0.209,-0.082C0.249,-0.055 0.298,-0.041 0.357,-0.041C0.425,-0.041 0.48,-0.059 0.522,-0.095C0.564,-0.131 0.593,-0.178 0.608,-0.239L0.668,-0.224C0.649,-0.151 0.613,-0.093 0.561,-0.05C0.509,-0.007 0.441,0.015 0.357,0.015Z" style="fill:rgb(247,223,5);fill-rule:nonzero;"/>
        </g>
        <g transform="matrix(425,0,0,425,2825.672062,796.714303)">
        </g>
    </g>
    <g id="Icon" transform="matrix(6.785919,0,0,4.581011,-5325.677213,-4816.171219)">
        <g transform="matrix(-0.931608,0,0,0.890632,1820.622391,94.849116)">
            <path d="M892.153,1421.238L892.153,1326.889L944.881,1374.069L944.881,1342.622L874.579,1279.731L874.577,1436.961L962.456,1515.576L962.456,1484.13L892.153,1421.238Z" style="fill:rgb(255,236,63);"/>
        </g>
        <g transform="matrix(0.931608,0,0,0.890632,158.312011,94.881807)">
            <path d="M892.192,1326.863L892.192,1421.201L874.616,1405.478L874.616,1342.586L892.192,1326.863Z" style="fill:rgb(248,223,0);"/>
        </g>
        <g transform="matrix(-0.158578,0,0,0.173732,1115.084584,1126.870194)">
            <path d="M1205.052,1506.838L895.291,1265.026L792.037,1345.63L1205.052,1668.046L1514.814,1426.234L1411.56,1345.63L1205.052,1506.838Z" style="fill:rgb(255,236,63);"/>
        </g>
        <g id="rod" transform="matrix(1,0,0,1,0.60488,-56.902228)">
            <path d="M874.264,1431.554L923.385,1473.565L923.385,1501.572L857.89,1445.558L857.89,1389.544L874.264,1403.547L874.264,1431.554Z" style="fill:rgb(248,223,0);"/>
        </g>
        <g transform="matrix(-0.931608,0,0,0.890632,1705.891291,108.950653)">
            <path d="M892.03,1389.682L892.03,1421.128L856.878,1389.682L856.878,1358.235L892.03,1389.682Z" style="fill:rgb(255,236,63);"/>
        </g>
        <g transform="matrix(-0.158578,0,0,0.173732,1016.65751,1099.392033)">
            <path d="M997.382,1342.587L894.128,1423.191L687.62,1261.983L790.874,1181.379L997.382,1342.587Z" style="fill:rgb(255,236,63);"/>
        </g>
        <g transform="matrix(-0.158578,0,0,0.173732,1096.399671,1031.193551)">
            <path d="M983.97,1332.117L674.192,1090.325L570.972,1170.909L880.716,1412.721L983.97,1493.325L1396.987,1170.909L1293.732,1090.305L983.97,1332.117Z" style="fill:rgb(255,236,63);"/>
        </g>
        <g transform="matrix(0.931608,0,0,0.890632,109.305355,52.773338)">
            <path d="M821.765,1326.973L892.069,1389.865L892.069,1421.311L804.19,1342.696L804.19,1248.357L821.765,1264.08L821.765,1326.973Z" style="fill:rgb(248,223,0);"/>
        </g>
        <g transform="matrix(-0.931608,0,0,0.890632,1705.891291,-31.084007)">
            <path d="M874.454,1373.958L874.454,1405.405L892.03,1421.128L892.03,1358.235L821.727,1295.343L821.727,1326.789L874.454,1373.958Z" style="fill:rgb(255,236,63);"/>
        </g>
        <g transform="matrix(-0.158578,0,0,0.173732,1031.953744,916.915774)">
            <path d="M164.556,1345.068L371.063,1506.277L474.317,1425.673L371.064,1345.068L577.571,1183.861L990.587,1506.277L1093.841,1425.673L577.571,1022.652L164.556,1345.068Z" style="fill:rgb(255,236,63);"/>
        </g>
        <g transform="matrix(-0.931608,0,0,0.890632,1820.50772,-73.094405)">
            <path d="M909.606,1405.405L909.606,1436.851L874.454,1405.405L874.454,1373.958L909.606,1405.405Z" style="fill:rgb(255,236,63);"/>
        </g>
        <g transform="matrix(0.931608,0,0,0.890632,141.861789,-87.097871)">
            <path d="M892.274,1389.682L874.698,1405.405L857.122,1389.682L857.122,1358.235L892.274,1389.682Z" style="fill:rgb(248,223,0);"/>
        </g>
        <g transform="matrix(0.931608,0,0,0.890632,141.978035,-59.122282)">
            <path d="M892.149,1389.717C892.149,1400.199 892.215,1411.129 892.149,1421.163L874.573,1405.44L874.573,1373.994L892.149,1389.717Z" style="fill:rgb(248,223,0);"/>
        </g>
    </g>
</svg>
